<svg width="50" height="50" version="1.1" xmlns="http://www.w3.org/2000/svg" desc="Created with imagetracer.js version 1.2.6" ><path fill="rgb(255,255,255)" stroke="rgb(255,255,255)" stroke-width="1" opacity="0.8470588235294118" d="M 6 1 L 43.5 1 L 44 1.5 L 44 8 L 39 8 L 39 18.5 L 35.5 23 L 33 24.5 L 34.5 27 L 38 29.5 L 39 31.5 L 39 42 L 44 42 L 44 49 L 6.5 49 L 6 48.5 L 6 42 L 11 42 L 11 31.5 L 14.5 27 L 17 25.5 L 15.5 23 L 12 20.5 L 11 18.5 L 11 8 L 6 8 L 6 1 Z M 8 3 L 10 6 L 41 6 L 42 5 L 42 3 L 8 3 Z M 13 8 L 14 18 L 22 23 L 23 26 L 18 29 L 14 33 L 13 37 Q 12 42 14 42 L 37 42 L 36 33 L 29 27 L 27 25 L 33 21 L 36 18 L 37 14 Q 38 8 37 8 L 13 8 Z M 10 44 L 8 47 L 42 47 L 42 46 L 41 44 L 10 44 Z " /><path fill="rgb(0,0,0)" stroke="rgb(0,0,0)" stroke-width="1" opacity="0" d="M 0 0 L 50 0 L 50 50 L 0 50 L 0 0 Z M 6 1 L 6 8 L 11 8 L 11 19 L 12 21 L 16 23 L 17 26 L 15 27 L 11 32 L 11 42 L 6 42 L 6 49 L 7 49 L 44 49 L 44 42 L 39 42 L 39 32 L 38 30 L 35 27 L 33 25 L 36 23 L 39 19 L 39 8 L 44 8 L 44 2 L 44 1 L 6 1 Z " /><path fill="rgb(0,0,0)" stroke="rgb(0,0,0)" stroke-width="1" opacity="0" d="M 8 3 L 41.5 3 L 42 4.5 L 40.5 6 L 9.5 6 L 8 3 Z " /><path fill="rgb(0,0,0)" stroke="rgb(0,0,0)" stroke-width="1" opacity="0" d="M 13 8 L 36.5 8 Q 37.6 8.1 37 13.5 L 36 17.5 L 32.5 21 L 27 24.5 L 28.5 27 L 36 32.5 L 37 42 L 13.5 42 Q 12.4 41.9 13 36.5 L 14 32.5 L 17.5 29 L 23 25.5 L 21.5 23 L 14 17.5 L 13 8 Z " /><path fill="rgb(0,0,0)" stroke="rgb(0,0,0)" stroke-width="1" opacity="0" d="M 9.5 44 L 40.5 44 L 42 45.5 L 41.5 47 L 8 47 L 9.5 44 Z " /></svg>