<svg width="256" height="256" version="1.1" xmlns="http://www.w3.org/2000/svg" desc="Created with imagetracer.js version 1.2.6" ><path fill="rgb(0,0,0)" stroke="rgb(0,0,0)" stroke-width="1" opacity="0" d="M 0 0 L 256 0 L 256 256 L 0 256 L 0 0 Z M 22 2 L 12 7 Q 5 12 2 22 L 2 62 Q 4 65 12 64 L 14 62 L 14 29 L 15 24 L 18 18 L 24 15 L 29 14 L 62 14 L 64 12 Q 65 5 63 3 L 61 2 L 22 2 Z M 195 2 Q 190 4 192 12 L 196 14 L 228 14 L 233 15 L 238 18 L 242 29 L 242 62 L 246 64 Q 253 66 254 62 L 254 22 L 250 13 Q 245 5 235 2 L 195 2 Z M 45 42 L 42 45 L 42 92 L 46 94 L 92 94 L 94 92 L 94 46 L 93 43 L 91 42 L 45 42 Z M 137 42 L 134 45 L 134 82 L 113 82 L 110 85 L 110 122 L 95 122 Q 90 124 92 132 L 96 134 L 120 134 L 122 132 L 122 94 L 144 94 L 146 92 L 146 46 L 145 43 Q 143 41 137 42 Z M 165 42 L 162 45 L 162 92 L 166 94 L 212 94 L 214 92 L 214 46 L 213 43 L 211 42 L 165 42 Z M 155 110 Q 150 112 152 120 L 156 122 L 176 122 L 176 144 L 180 146 L 212 146 L 214 144 Q 215 137 213 135 L 211 134 L 188 134 L 188 114 L 187 111 L 185 110 L 155 110 Z M 45 122 Q 40 124 42 132 L 46 134 L 62 134 L 64 132 Q 65 125 63 123 L 61 122 L 45 122 Z M 137 142 L 134 145 L 134 182 L 113 182 L 110 185 L 110 212 Q 112 215 120 214 L 122 212 L 122 194 L 144 194 L 146 192 L 146 146 L 145 143 Q 143 141 137 142 Z M 45 162 L 42 165 L 42 212 L 46 214 L 92 214 L 94 212 L 94 166 L 93 163 L 91 162 L 45 162 Z M 165 162 L 162 165 L 162 212 L 166 214 L 212 214 L 214 212 L 214 166 L 213 163 L 211 162 L 165 162 Z M 5 192 L 2 195 L 2 235 L 6 244 Q 11 251 22 254 L 62 254 L 64 252 Q 65 245 63 243 L 61 242 L 29 242 L 18 238 L 15 233 L 14 228 L 14 196 L 13 193 Q 11 191 5 192 Z M 245 192 L 242 195 L 242 228 L 241 233 L 238 238 L 233 241 L 228 242 L 195 242 Q 190 244 192 252 L 196 254 L 235 254 L 244 250 Q 251 245 254 235 L 254 196 L 253 193 Q 251 191 245 192 Z " /><path fill="rgb(0,0,0)" stroke="rgb(0,0,0)" stroke-width="1" opacity="0" d="M 54 54 L 82 54 L 82 82 L 54 82 L 54 54 Z " /><path fill="rgb(0,0,0)" stroke="rgb(0,0,0)" stroke-width="1" opacity="0" d="M 174 54 L 202 54 L 202 82 L 174 82 L 174 54 Z " /><path fill="rgb(0,0,0)" stroke="rgb(0,0,0)" stroke-width="1" opacity="0" d="M 54 174 L 82 174 L 82 202 L 54 202 L 54 174 Z " /><path fill="rgb(0,0,0)" stroke="rgb(0,0,0)" stroke-width="1" opacity="0" d="M 174 174 L 202 174 L 202 202 L 174 202 L 174 174 Z " /><path fill="rgb(138,25,15)" stroke="rgb(138,25,15)" stroke-width="1" opacity="0.7058823529411765" d="M 21.5 2 L 25 2.5 L 21.5 3 L 21.5 2 Z " /><path fill="rgb(138,25,15)" stroke="rgb(138,25,15)" stroke-width="1" opacity="0.7058823529411765" d="M 59.5 2 L 63 3 L 64 6.5 L 63 6.5 L 60.5 3 L 59.5 2 Z " /><path fill="rgb(138,25,15)" stroke="rgb(138,25,15)" stroke-width="1" opacity="0.7058823529411765" d="M 194.5 2 L 197 2.5 L 194 3 L 192.5 7 L 192 4.5 L 194.5 2 Z " /><path fill="rgb(138,25,15)" stroke="rgb(138,25,15)" stroke-width="1" opacity="0.7058823529411765" d="M 231.5 2 L 235 2.5 L 231.5 3 L 231.5 2 Z " /><path fill="rgb(138,25,15)" stroke="rgb(138,25,15)" stroke-width="1" opacity="0.7058823529411765" d="M 18.5 3 L 20 3.5 L 8 11.5 L 3.5 20 L 3 18.5 L 11.5 7 L 18.5 3 Z " /><path fill="rgb(138,25,15)" stroke="rgb(138,25,15)" stroke-width="1" opacity="0.7058823529411765" d="M 236.5 3 Q 245.5 5.5 250 12.5 L 253 19.5 L 252 19.5 Q 249.9 12.1 244.5 8 L 236.5 4 L 236.5 3 Z " /><path fill="rgb(138,25,15)" stroke="rgb(138,25,15)" stroke-width="1" opacity="0.7058823529411765" d="M 63.5 9 L 64 11.5 Q 63.5 14.5 59.5 14 L 59.5 13 L 63 10.5 L 63.5 9 Z " /><path fill="rgb(138,25,15)" stroke="rgb(138,25,15)" stroke-width="1" opacity="0.7058823529411765" d="M 192.5 9 L 195.5 13 L 197 13.5 L 195.5 14 L 192 11.5 L 192.5 9 Z " /><path fill="rgb(138,25,15)" stroke="rgb(138,25,15)" stroke-width="1" opacity="0.7058823529411765" d="M 23.5 14 L 28 14.5 L 23.5 15 L 18 18 L 15 23.5 L 14.5 28 L 14 23.5 L 19.5 16 L 23.5 14 Z " /><path fill="rgb(138,25,15)" stroke="rgb(138,25,15)" stroke-width="1" opacity="0.7058823529411765" d="M 228.5 14 L 232.5 14 L 240 19.5 Q 242.7 21.8 242 27.5 L 241 27.5 L 241 23.5 L 238 18 L 232.5 15 L 228.5 15 L 228.5 14 Z " /><path fill="rgb(138,25,15)" stroke="rgb(138,25,15)" stroke-width="1" opacity="0.7058823529411765" d="M 2.5 21 L 3 24.5 L 2 24.5 L 2.5 21 Z " /><path fill="rgb(138,25,15)" stroke="rgb(138,25,15)" stroke-width="1" opacity="0.7058823529411765" d="M 253.5 21 L 254 24.5 L 253 24.5 L 253.5 21 Z " /><path fill="rgb(138,25,15)" stroke="rgb(138,25,15)" stroke-width="1" opacity="0.7058823529411765" d="M 44.5 42 L 47 42.5 L 44 43 L 42.5 47 L 42 44.5 L 44.5 42 Z " /><path fill="rgb(138,25,15)" stroke="rgb(138,25,15)" stroke-width="1" opacity="0.7058823529411765" d="M 89.5 42 L 93 43 L 94 46.5 L 93 46.5 L 90.5 43 L 89.5 42 Z " /><path fill="rgb(138,25,15)" stroke="rgb(138,25,15)" stroke-width="1" opacity="0.7058823529411765" d="M 136.5 42 L 139 42.5 L 136 43 L 134.5 47 L 134 44.5 L 136.5 42 Z " /><path fill="rgb(138,25,15)" stroke="rgb(138,25,15)" stroke-width="1" opacity="0.7058823529411765" d="M 141.5 42 L 145 43 L 146 46.5 L 145 46.5 L 142.5 43 L 141.5 42 Z " /><path fill="rgb(138,25,15)" stroke="rgb(138,25,15)" stroke-width="1" opacity="0.7058823529411765" d="M 164.5 42 L 167 42.5 L 164 43 L 162.5 47 L 162 44.5 L 164.5 42 Z " /><path fill="rgb(138,25,15)" stroke="rgb(138,25,15)" stroke-width="1" opacity="0.7058823529411765" d="M 209.5 42 L 213 43 L 214 46.5 L 213 46.5 L 210.5 43 L 209.5 42 Z " /><path fill="rgb(138,25,15)" stroke="rgb(138,25,15)" stroke-width="1" opacity="0.7058823529411765" d="M 2.5 59 L 5.5 63 L 7 63.5 L 5.5 64 L 2 61.5 L 2.5 59 Z " /><path fill="rgb(138,25,15)" stroke="rgb(138,25,15)" stroke-width="1" opacity="0.7058823529411765" d="M 13.5 59 L 14 61.5 Q 13.5 64.5 9.5 64 L 9.5 63 L 13 60.5 L 13.5 59 Z " /><path fill="rgb(138,25,15)" stroke="rgb(138,25,15)" stroke-width="1" opacity="0.7058823529411765" d="M 242.5 59 L 245.5 63 L 247 63.5 L 245.5 64 L 242 61.5 L 242.5 59 Z " /><path fill="rgb(138,25,15)" stroke="rgb(138,25,15)" stroke-width="1" opacity="0.7058823529411765" d="M 253.5 59 L 254 61.5 Q 253.5 64.5 249.5 64 L 249.5 63 L 253 60.5 L 253.5 59 Z " /><path fill="rgb(138,25,15)" stroke="rgb(138,25,15)" stroke-width="1" opacity="0.7058823529411765" d="M 112.5 82 L 115 82.5 L 112 83 L 110.5 87 L 110 84.5 L 112.5 82 Z " /><path fill="rgb(138,25,15)" stroke="rgb(138,25,15)" stroke-width="1" opacity="0.7058823529411765" d="M 42.5 89 L 45.5 93 L 47 93.5 L 45.5 94 L 42 91.5 L 42.5 89 Z " /><path fill="rgb(138,25,15)" stroke="rgb(138,25,15)" stroke-width="1" opacity="0.7058823529411765" d="M 93.5 89 L 94 91.5 Q 93.5 94.5 89.5 94 L 89.5 93 L 93 90.5 L 93.5 89 Z " /><path fill="rgb(138,25,15)" stroke="rgb(138,25,15)" stroke-width="1" opacity="0.7058823529411765" d="M 145.5 89 L 146 91.5 Q 145.5 94.5 141.5 94 L 141.5 93 L 145 90.5 L 145.5 89 Z " /><path fill="rgb(138,25,15)" stroke="rgb(138,25,15)" stroke-width="1" opacity="0.7058823529411765" d="M 162.5 89 L 165.5 93 L 167 93.5 L 165.5 94 L 162 91.5 L 162.5 89 Z " /><path fill="rgb(138,25,15)" stroke="rgb(138,25,15)" stroke-width="1" opacity="0.7058823529411765" d="M 213.5 89 L 214 91.5 Q 213.5 94.5 209.5 94 L 209.5 93 L 213 90.5 L 213.5 89 Z " /><path fill="rgb(138,25,15)" stroke="rgb(138,25,15)" stroke-width="1" opacity="0.7058823529411765" d="M 154.5 110 L 157 110.5 L 154 111 L 152.5 115 L 152 112.5 L 154.5 110 Z " /><path fill="rgb(138,25,15)" stroke="rgb(138,25,15)" stroke-width="1" opacity="0.7058823529411765" d="M 183.5 110 L 187 111 L 188 114.5 L 187 114.5 L 184.5 111 L 183.5 110 Z " /><path fill="rgb(138,25,15)" stroke="rgb(138,25,15)" stroke-width="1" opacity="0.7058823529411765" d="M 152.5 117 L 155.5 121 L 157 121.5 L 155.5 122 L 152 119.5 L 152.5 117 Z " /><path fill="rgb(138,25,15)" stroke="rgb(138,25,15)" stroke-width="1" opacity="0.7058823529411765" d="M 44.5 122 L 47 122.5 L 44 123 L 42.5 127 L 42 124.5 L 44.5 122 Z " /><path fill="rgb(138,25,15)" stroke="rgb(138,25,15)" stroke-width="1" opacity="0.7058823529411765" d="M 59.5 122 L 63 123 L 64 126.5 L 63 126.5 L 60.5 123 L 59.5 122 Z " /><path fill="rgb(138,25,15)" stroke="rgb(138,25,15)" stroke-width="1" opacity="0.7058823529411765" d="M 94.5 122 L 97 122.5 L 94 123 L 92.5 127 L 92 124.5 L 94.5 122 Z " /><path fill="rgb(138,25,15)" stroke="rgb(138,25,15)" stroke-width="1" opacity="0.7058823529411765" d="M 42.5 129 L 45.5 133 L 47 133.5 L 45.5 134 L 42 131.5 L 42.5 129 Z " /><path fill="rgb(138,25,15)" stroke="rgb(138,25,15)" stroke-width="1" opacity="0.7058823529411765" d="M 63.5 129 L 64 131.5 Q 63.5 134.5 59.5 134 L 59.5 133 L 63 130.5 L 63.5 129 Z " /><path fill="rgb(138,25,15)" stroke="rgb(138,25,15)" stroke-width="1" opacity="0.7058823529411765" d="M 92.5 129 L 95.5 133 L 97 133.5 L 95.5 134 L 92 131.5 L 92.5 129 Z " /><path fill="rgb(138,25,15)" stroke="rgb(138,25,15)" stroke-width="1" opacity="0.7058823529411765" d="M 121.5 129 L 122 131.5 Q 121.5 134.5 117.5 134 L 117.5 133 L 121 130.5 L 121.5 129 Z " /><path fill="rgb(138,25,15)" stroke="rgb(138,25,15)" stroke-width="1" opacity="0.7058823529411765" d="M 209.5 134 L 213 135 L 214 138.5 L 213 138.5 L 210.5 135 L 209.5 134 Z " /><path fill="rgb(138,25,15)" stroke="rgb(138,25,15)" stroke-width="1" opacity="0.7058823529411765" d="M 176.5 141 L 179.5 145 L 181 145.5 L 179.5 146 L 176 143.5 L 176.5 141 Z " /><path fill="rgb(138,25,15)" stroke="rgb(138,25,15)" stroke-width="1" opacity="0.7058823529411765" d="M 213.5 141 L 214 143.5 Q 213.5 146.5 209.5 146 L 209.5 145 L 213 142.5 L 213.5 141 Z " /><path fill="rgb(138,25,15)" stroke="rgb(138,25,15)" stroke-width="1" opacity="0.7058823529411765" d="M 136.5 142 L 139 142.5 L 136 143 L 134.5 147 L 134 144.5 L 136.5 142 Z " /><path fill="rgb(138,25,15)" stroke="rgb(138,25,15)" stroke-width="1" opacity="0.7058823529411765" d="M 141.5 142 L 145 143 L 146 146.5 L 145 146.5 L 142.5 143 L 141.5 142 Z " /><path fill="rgb(138,25,15)" stroke="rgb(138,25,15)" stroke-width="1" opacity="0.7058823529411765" d="M 44.5 162 L 47 162.5 L 44 163 L 42.5 167 L 42 164.5 L 44.5 162 Z " /><path fill="rgb(138,25,15)" stroke="rgb(138,25,15)" stroke-width="1" opacity="0.7058823529411765" d="M 89.5 162 L 93 163 L 94 166.5 L 93 166.5 L 90.5 163 L 89.5 162 Z " /><path fill="rgb(138,25,15)" stroke="rgb(138,25,15)" stroke-width="1" opacity="0.7058823529411765" d="M 164.5 162 L 167 162.5 L 164 163 L 162.5 167 L 162 164.5 L 164.5 162 Z " /><path fill="rgb(138,25,15)" stroke="rgb(138,25,15)" stroke-width="1" opacity="0.7058823529411765" d="M 209.5 162 L 213 163 L 214 166.5 L 213 166.5 L 210.5 163 L 209.5 162 Z " /><path fill="rgb(138,25,15)" stroke="rgb(138,25,15)" stroke-width="1" opacity="0.7058823529411765" d="M 112.5 182 L 115 182.5 L 112 183 L 110.5 187 L 110 184.5 L 112.5 182 Z " /><path fill="rgb(138,25,15)" stroke="rgb(138,25,15)" stroke-width="1" opacity="0.7058823529411765" d="M 145.5 189 L 146 191.5 Q 145.5 194.5 141.5 194 L 141.5 193 L 145 190.5 L 145.5 189 Z " /><path fill="rgb(138,25,15)" stroke="rgb(138,25,15)" stroke-width="1" opacity="0.7058823529411765" d="M 4.5 192 L 7 192.5 L 4 193 L 2.5 197 L 2 194.5 L 4.5 192 Z " /><path fill="rgb(138,25,15)" stroke="rgb(138,25,15)" stroke-width="1" opacity="0.7058823529411765" d="M 9.5 192 L 13 193 L 14 196.5 L 13 196.5 L 10.5 193 L 9.5 192 Z " /><path fill="rgb(138,25,15)" stroke="rgb(138,25,15)" stroke-width="1" opacity="0.7058823529411765" d="M 244.5 192 L 247 192.5 L 244 193 L 242.5 197 L 242 194.5 L 244.5 192 Z " /><path fill="rgb(138,25,15)" stroke="rgb(138,25,15)" stroke-width="1" opacity="0.7058823529411765" d="M 249.5 192 L 253 193 L 254 196.5 L 253 196.5 L 250.5 193 L 249.5 192 Z " /><path fill="rgb(138,25,15)" stroke="rgb(138,25,15)" stroke-width="1" opacity="0.7058823529411765" d="M 42.5 209 L 45.5 213 L 47 213.5 L 45.5 214 L 42 211.5 L 42.5 209 Z " /><path fill="rgb(138,25,15)" stroke="rgb(138,25,15)" stroke-width="1" opacity="0.7058823529411765" d="M 93.5 209 L 94 211.5 Q 93.5 214.5 89.5 214 L 89.5 213 L 93 210.5 L 93.5 209 Z " /><path fill="rgb(138,25,15)" stroke="rgb(138,25,15)" stroke-width="1" opacity="0.7058823529411765" d="M 110.5 209 L 113.5 213 L 115 213.5 L 113.5 214 L 110 211.5 L 110.5 209 Z " /><path fill="rgb(138,25,15)" stroke="rgb(138,25,15)" stroke-width="1" opacity="0.7058823529411765" d="M 121.5 209 L 122 211.5 Q 121.5 214.5 117.5 214 L 117.5 213 L 121 210.5 L 121.5 209 Z " /><path fill="rgb(138,25,15)" stroke="rgb(138,25,15)" stroke-width="1" opacity="0.7058823529411765" d="M 162.5 209 L 165.5 213 L 167 213.5 L 165.5 214 L 162 211.5 L 162.5 209 Z " /><path fill="rgb(138,25,15)" stroke="rgb(138,25,15)" stroke-width="1" opacity="0.7058823529411765" d="M 213.5 209 L 214 211.5 Q 213.5 214.5 209.5 214 L 209.5 213 L 213 210.5 L 213.5 209 Z " /><path fill="rgb(138,25,15)" stroke="rgb(138,25,15)" stroke-width="1" opacity="0.7058823529411765" d="M 14.5 228 L 15 232.5 L 18 238 L 23.5 241 L 28 241.5 L 23.5 242 L 16 236.5 Q 12.9 233.5 14.5 228 Z " /><path fill="rgb(138,25,15)" stroke="rgb(138,25,15)" stroke-width="1" opacity="0.7058823529411765" d="M 241.5 228 L 242 232.5 L 236.5 240 Q 234.2 242.7 228.5 242 L 228.5 241 L 232.5 241 L 238 238 L 241 232.5 L 241.5 228 Z " /><path fill="rgb(138,25,15)" stroke="rgb(138,25,15)" stroke-width="1" opacity="0.7058823529411765" d="M 2.5 231 L 3 234.5 L 2 234.5 L 2.5 231 Z " /><path fill="rgb(138,25,15)" stroke="rgb(138,25,15)" stroke-width="1" opacity="0.7058823529411765" d="M 253.5 231 L 254 234.5 L 253 234.5 L 253.5 231 Z " /><path fill="rgb(138,25,15)" stroke="rgb(138,25,15)" stroke-width="1" opacity="0.7058823529411765" d="M 3.5 236 L 11.5 248 L 20 252.5 L 18.5 253 Q 10.4 250.1 6 243.5 L 3.5 236 Z " /><path fill="rgb(138,25,15)" stroke="rgb(138,25,15)" stroke-width="1" opacity="0.7058823529411765" d="M 252.5 236 L 253 237.5 Q 250.1 245.6 243.5 250 L 236.5 253 L 236.5 252 Q 243.9 249.9 248 244.5 L 252.5 236 Z " /><path fill="rgb(138,25,15)" stroke="rgb(138,25,15)" stroke-width="1" opacity="0.7058823529411765" d="M 59.5 242 L 63 243 L 64 246.5 L 63 246.5 L 60.5 243 L 59.5 242 Z " /><path fill="rgb(138,25,15)" stroke="rgb(138,25,15)" stroke-width="1" opacity="0.7058823529411765" d="M 194.5 242 L 197 242.5 L 194 243 L 192.5 247 L 192 244.5 L 194.5 242 Z " /><path fill="rgb(138,25,15)" stroke="rgb(138,25,15)" stroke-width="1" opacity="0.7058823529411765" d="M 63.5 249 L 64 251.5 Q 63.5 254.5 59.5 254 L 59.5 253 L 63 250.5 L 63.5 249 Z " /><path fill="rgb(138,25,15)" stroke="rgb(138,25,15)" stroke-width="1" opacity="0.7058823529411765" d="M 192.5 249 L 195.5 253 L 197 253.5 L 195.5 254 L 192 251.5 L 192.5 249 Z " /><path fill="rgb(138,25,15)" stroke="rgb(138,25,15)" stroke-width="1" opacity="0.7058823529411765" d="M 21.5 253 L 25 253.5 L 21.5 254 L 21.5 253 Z " /><path fill="rgb(138,25,15)" stroke="rgb(138,25,15)" stroke-width="1" opacity="0.7058823529411765" d="M 231.5 253 L 235 253.5 L 231.5 254 L 231.5 253 Z " /><path fill="rgb(138,26,16)" stroke="rgb(138,26,16)" stroke-width="1" opacity="0.996078431372549" d="M 25.5 2 L 58.5 2 L 63 5.5 L 64 8.5 L 60.5 13 L 58.5 14 L 23.5 14 L 16 19.5 L 14 23.5 L 14 58.5 L 10.5 63 L 7.5 64 L 3 60.5 L 2 58.5 L 2 25.5 Q 4.2 14.2 11.5 8 L 20.5 3 L 25.5 2 Z " /><path fill="rgb(138,26,16)" stroke="rgb(138,26,16)" stroke-width="1" opacity="0.996078431372549" d="M 197.5 2 L 230.5 2 Q 241.8 4.2 248 11.5 L 253 20.5 L 254 25.5 L 254 58.5 L 250.5 63 L 247.5 64 L 243 60.5 L 242 58.5 L 242 23.5 L 236.5 16 L 232.5 14 L 197.5 14 L 193 10.5 L 192 7.5 L 194 3 L 197.5 2 Z " /><path fill="rgb(138,26,16)" stroke="rgb(138,26,16)" stroke-width="1" opacity="0.996078431372549" d="M 47.5 42 L 88.5 42 L 93 45.5 L 94 47.5 L 94 88.5 L 90.5 93 L 88.5 94 L 47.5 94 L 43 90.5 L 42 88.5 L 42 47.5 L 44 43 L 47.5 42 Z M 54 54 L 54 82 L 82 82 L 82 54 L 54 54 Z " /><path fill="rgb(138,26,16)" stroke="rgb(138,26,16)" stroke-width="1" opacity="0.996078431372549" d="M 139.5 42 L 145 45.5 L 146 47.5 L 146 88.5 L 142.5 93 L 140.5 94 L 122 94 L 122 128.5 L 118.5 133 L 116.5 134 L 97.5 134 L 93 130.5 L 92 127.5 L 94 123 Q 99.6 120.7 110 122 L 110 87.5 L 112 83 L 115.5 82 L 134 82 L 134 47.5 L 136 43 L 139.5 42 Z " /><path fill="rgb(138,26,16)" stroke="rgb(138,26,16)" stroke-width="1" opacity="0.996078431372549" d="M 167.5 42 L 208.5 42 L 213 45.5 L 214 47.5 L 214 88.5 L 210.5 93 L 208.5 94 L 167.5 94 L 163 90.5 L 162 88.5 L 162 47.5 L 164 43 L 167.5 42 Z M 174 54 L 174 82 L 202 82 L 202 54 L 174 54 Z " /><path fill="rgb(138,26,16)" stroke="rgb(138,26,16)" stroke-width="1" opacity="0.996078431372549" d="M 157.5 110 L 182.5 110 L 187 113.5 L 188 115.5 L 188 134 L 208.5 134 L 213 137.5 L 214 140.5 L 210.5 145 L 208.5 146 L 181.5 146 L 177 142.5 L 176 140.5 L 176 122 L 157.5 122 L 153 118.5 L 152 115.5 L 154 111 L 157.5 110 Z " /><path fill="rgb(138,26,16)" stroke="rgb(138,26,16)" stroke-width="1" opacity="0.996078431372549" d="M 47.5 122 Q 59.4 119.6 63 125.5 L 64 128.5 L 60.5 133 L 58.5 134 L 47.5 134 L 43 130.5 L 42 127.5 L 44 123 L 47.5 122 Z " /><path fill="rgb(138,26,16)" stroke="rgb(138,26,16)" stroke-width="1" opacity="0.996078431372549" d="M 139.5 142 L 145 145.5 L 146 147.5 L 146 188.5 L 142.5 193 L 140.5 194 L 122 194 L 122 208.5 L 118.5 213 L 115.5 214 L 111 210.5 L 110 208.5 L 110 187.5 L 112 183 L 115.5 182 L 134 182 L 134 147.5 L 136 143 L 139.5 142 Z " /><path fill="rgb(138,26,16)" stroke="rgb(138,26,16)" stroke-width="1" opacity="0.996078431372549" d="M 47.5 162 L 88.5 162 L 93 165.5 L 94 167.5 L 94 208.5 L 90.5 213 L 88.5 214 L 47.5 214 L 43 210.5 L 42 208.5 L 42 167.5 L 44 163 L 47.5 162 Z M 54 174 L 54 202 L 82 202 L 82 174 L 54 174 Z " /><path fill="rgb(138,26,16)" stroke="rgb(138,26,16)" stroke-width="1" opacity="0.996078431372549" d="M 167.5 162 L 208.5 162 L 213 165.5 L 214 167.5 L 214 208.5 L 210.5 213 L 208.5 214 L 167.5 214 L 163 210.5 L 162 208.5 L 162 167.5 L 164 163 L 167.5 162 Z M 174 174 L 174 202 L 202 202 L 202 174 L 174 174 Z " /><path fill="rgb(138,26,16)" stroke="rgb(138,26,16)" stroke-width="1" opacity="0.996078431372549" d="M 7.5 192 L 13 195.5 L 14 197.5 L 14 232.5 L 19.5 240 L 23.5 242 L 58.5 242 L 63 245.5 L 64 248.5 L 60.5 253 L 58.5 254 L 25.5 254 Q 14.2 251.8 8 244.5 L 3 235.5 L 2 230.5 L 2 197.5 L 4 193 L 7.5 192 Z " /><path fill="rgb(138,26,16)" stroke="rgb(138,26,16)" stroke-width="1" opacity="0.996078431372549" d="M 247.5 192 L 253 195.5 L 254 197.5 L 254 230.5 Q 251.8 241.8 244.5 248 L 235.5 253 L 230.5 254 L 197.5 254 L 193 250.5 L 192 247.5 L 194 243 L 197.5 242 L 232.5 242 L 240 236.5 L 242 232.5 L 242 197.5 L 244 193 L 247.5 192 Z " /></svg>